<svg width="24" height="24" viewBox="0 0 24 24" fill="none" xmlns="http://www.w3.org/2000/svg">
<circle cx="12" cy="12" r="12" fill="#F8E1DD"/>
<path d="M8.49996 17.2502C8.33468 17.2502 8.19604 17.1942 8.08404 17.0822C7.97243 16.9706 7.91663 16.8321 7.91663 16.6668V7.91683C7.91663 7.75155 7.97243 7.61291 8.08404 7.50091C8.19604 7.3893 8.33468 7.3335 8.49996 7.3335H12.6854C12.8215 7.3335 12.943 7.37725 13.05 7.46475C13.1569 7.55225 13.225 7.66405 13.2541 7.80016L13.4 8.50016H16.0833C16.2486 8.50016 16.387 8.55597 16.4986 8.66758C16.6106 8.77958 16.6666 8.91822 16.6666 9.0835V13.7502C16.6666 13.9154 16.6106 14.0539 16.4986 14.1655C16.387 14.2775 16.2486 14.3335 16.0833 14.3335H13.0645C12.9284 14.3335 12.8069 14.2897 12.7 14.2022C12.593 14.1147 12.525 14.0029 12.4958 13.8668L12.35 13.1668H9.08329V16.6668C9.08329 16.8321 9.02749 16.9706 8.91588 17.0822C8.80388 17.1942 8.66524 17.2502 8.49996 17.2502Z" fill="#DE7264"/>
</svg>
