<svg width="14" height="14" viewBox="0 0 14 14" fill="none" xmlns="http://www.w3.org/2000/svg">
<path fillRule="evenodd" clipRule="evenodd" d="M6.29295 0.293004L0.792948 5.792C0.60566 5.97983 0.500488 6.23426 0.500488 6.4995C0.500488 6.76475 0.60566 7.01918 0.792948 7.207C0.885736 7.29995 0.995939 7.37369 1.11725 7.424C1.23857 7.47431 1.36861 7.50021 1.49995 7.50021C1.63128 7.50021 1.76133 7.47431 1.88264 7.424C2.00396 7.37369 2.11416 7.29995 2.20695 7.207L5.99995 3.414V13C5.99995 13.2652 6.1053 13.5196 6.29284 13.7071C6.48038 13.8946 6.73473 14 6.99995 14C7.26516 14 7.51952 13.8946 7.70705 13.7071C7.89459 13.5196 7.99995 13.2652 7.99995 13V3.414L11.7929 7.207C11.8859 7.29985 11.9961 7.37348 12.1175 7.42371C12.2389 7.47393 12.369 7.49975 12.5003 7.49971C12.6316 7.49966 12.7617 7.47374 12.883 7.42344C13.0044 7.37313 13.1146 7.29941 13.2074 7.2065C13.3003 7.11359 13.3739 7.00331 13.4241 6.88194C13.4744 6.76057 13.5002 6.6305 13.5001 6.49915C13.5001 6.3678 13.4742 6.23775 13.4239 6.11642C13.3736 5.99508 13.2999 5.88485 13.2069 5.792L7.70695 0.293004C7.61434 0.199827 7.50417 0.125951 7.38281 0.0756567C7.26145 0.025362 7.13132 -0.000352089 6.99995 3.641e-06C6.86858 -0.000352089 6.73845 0.025362 6.61709 0.0756567C6.49573 0.125951 6.38555 0.199827 6.29295 0.293004Z" fill="#00875A"/>
</svg>
