<svg width="24" height="24" viewBox="0 0 24 24" fill="none" xmlns="http://www.w3.org/2000/svg">
<circle cx="12" cy="12" r="12" fill="#F8E1DD"/>
<g clip-path="url(#clip0_5257_20783)">
<path d="M12.3008 12.726L11.9868 11.9589L17.6363 9.9292L17.7705 10.2576L12.3008 12.726Z" fill="#DE7264"/>
<path d="M12.1657 13.2589C12.6427 13.2589 13.0293 12.8723 13.0293 12.3953C13.0293 11.9184 12.6427 11.5317 12.1657 11.5317C11.6888 11.5317 11.3021 11.9184 11.3021 12.3953C11.3021 12.8723 11.6888 13.2589 12.1657 13.2589Z" fill="#DE7264"/>
<path d="M5.44128 15.6267C4.89431 14.4908 4.64455 13.2346 4.71538 11.9758C4.78621 10.717 5.17532 9.49682 5.84628 8.4294C6.51723 7.36199 7.44809 6.48229 8.55169 5.87268C9.65529 5.26307 10.8955 4.94349 12.1563 4.94385V5.86655C10.7842 5.86672 9.44703 6.29903 8.33451 7.10211C7.22198 7.90518 6.39064 9.03825 5.95846 10.3405C5.42738 11.9479 5.53977 13.6986 6.27204 15.2249C6.31437 15.3115 6.32869 15.4091 6.31302 15.5042C6.29736 15.5993 6.25248 15.6872 6.18462 15.7556C6.14214 15.7985 6.09157 15.8325 6.03583 15.8557C5.9801 15.8789 5.92031 15.8908 5.85995 15.8907C5.77237 15.8906 5.68659 15.8658 5.61251 15.8191C5.53843 15.7724 5.47907 15.7057 5.44128 15.6267ZM18.1272 15.7552C18.0594 15.6869 18.0147 15.5993 17.9991 15.5044C17.9835 15.4095 17.9978 15.3121 18.0402 15.2257C18.7724 13.6994 18.885 11.9488 18.3542 10.3413C17.922 9.03907 17.0906 7.90601 15.9781 7.10293C14.8656 6.29985 13.5284 5.86755 12.1563 5.86737V4.94385C13.7743 4.94392 15.3482 5.47041 16.6406 6.4438C17.933 7.41719 18.8736 8.78465 19.3204 10.3397C19.8223 12.0983 19.6616 13.9799 18.8689 15.628C18.8312 15.7068 18.7719 15.7732 18.698 15.8196C18.624 15.8661 18.5384 15.8906 18.451 15.8902C18.3908 15.8903 18.3312 15.8784 18.2757 15.8553C18.2201 15.8322 18.1696 15.7983 18.1272 15.7556V15.7552Z" fill="#DE7264"/>
</g>
<defs>
<clipPath id="clip0_5257_20783">
<rect width="15.328" height="11.3573" fill="white" transform="translate(4.5 4.73877)"/>
</clipPath>
</defs>
</svg>
