<svg width="28" height="28" viewBox="0 0 28 28" fill="none" xmlns="http://www.w3.org/2000/svg">
<path fillRule="evenodd" clipRule="evenodd" d="M27.7523 14.1442C27.7523 21.6598 21.6598 27.7523 14.1442 27.7523C6.62869 27.7523 0.536133 21.6598 0.536133 14.1442C0.536133 6.62869 6.62869 0.536133 14.1442 0.536133C21.6598 0.536133 27.7523 6.62869 27.7523 14.1442ZM20.9476 19.1704C20.9475 18.699 20.7601 18.2469 20.4267 17.9137L16.6572 14.1442L20.4267 10.3748C20.5917 10.2098 20.7225 10.0139 20.8118 9.79832C20.9011 9.58274 20.9471 9.35167 20.9471 9.11832C20.9471 8.88497 20.9011 8.6539 20.8118 8.43832C20.7225 8.22273 20.5917 8.02684 20.4267 7.86184C20.2617 7.69683 20.0658 7.56595 19.8502 7.47665C19.6346 7.38735 19.4035 7.34139 19.1702 7.34139C18.9368 7.34139 18.7058 7.38735 18.4902 7.47665C18.2746 7.56595 18.0787 7.69683 17.9137 7.86184L14.1442 11.6313L10.3733 7.86184C10.0361 7.54848 9.59052 7.3781 9.13028 7.38653C8.67004 7.39496 8.23101 7.58154 7.90552 7.90703C7.58002 8.23252 7.39344 8.67156 7.38501 9.1318C7.37659 9.59204 7.54697 10.0376 7.86032 10.3748L11.6298 14.1442L7.86032 17.9137C7.52691 18.2472 7.33961 18.6994 7.33961 19.1709C7.33961 19.6425 7.52691 20.0947 7.86032 20.4282C8.025 20.5938 8.22078 20.7252 8.43642 20.8148C8.65205 20.9045 8.88328 20.9506 9.11681 20.9506C9.35034 20.9506 9.58156 20.9045 9.7972 20.8148C10.0128 20.7252 10.2086 20.5938 10.3733 20.4282L14.1442 16.6572L17.9137 20.4282C18.2471 20.7614 18.6993 20.9485 19.1707 20.9484C19.6421 20.9483 20.0942 20.7609 20.4274 20.4274C20.7607 20.094 20.9478 19.6418 20.9476 19.1704Z" fill="white"/>
</svg>
