<svg width="24" height="24" viewBox="0 0 24 24" fill="none" xmlns="http://www.w3.org/2000/svg">
<circle cx="12" cy="12" r="12" fill="#F8E1DD"/>
<g clip-path="url(#clip0_5251_20641)">
<path d="M8.54114 16.3767C8.469 16.3162 8.41091 16.2481 8.36685 16.1724C8.3225 16.097 8.29597 16.0096 8.28726 15.9101L7.71272 9.34312C7.69531 9.14412 7.74911 8.97014 7.8741 8.82118C7.99879 8.67258 8.16064 8.58957 8.35964 8.57216C8.55864 8.55475 8.73028 8.60658 8.87455 8.72764C9.01882 8.8487 9.09967 9.00873 9.11708 9.20773L9.54363 14.0832L14.6281 8.02374C14.7568 7.87045 14.9146 7.78779 15.1017 7.77576C15.2885 7.76344 15.4585 7.82158 15.6118 7.95021C15.7651 8.07884 15.8502 8.23849 15.8673 8.42917C15.8836 8.61991 15.8275 8.79192 15.6989 8.94521L10.6257 14.9912L15.5012 14.5646C15.7002 14.5472 15.8718 14.599 16.0161 14.7201C16.1604 14.8412 16.2412 15.0012 16.2586 15.2002C16.276 15.3992 16.2224 15.573 16.0977 15.7216C15.9727 15.8706 15.8107 15.9537 15.6117 15.9712L9.0447 16.5457C8.9452 16.5544 8.85451 16.5435 8.77262 16.5129C8.69044 16.4826 8.61328 16.4372 8.54114 16.3767Z" fill="#DE7264"/>
</g>
<defs>
<clipPath id="clip0_5251_20641">
<rect width="11" height="11" fill="white" transform="translate(11.5 4.5) rotate(40)"/>
</clipPath>
</defs>
</svg>
