<svg width="24" height="24" viewBox="0 0 24 24" fill="none" xmlns="http://www.w3.org/2000/svg">
<circle cx="12" cy="12" r="12" fill="#F8E1DD"/>
<path d="M15.5209 7.396L7.39587 15.521L8.47921 16.6043L16.6042 8.47933M9.29171 7.66683C8.86073 7.66683 8.44741 7.83803 8.14266 8.14278C7.83791 8.44753 7.66671 8.86085 7.66671 9.29183C7.66671 9.72281 7.83791 10.1361 8.14266 10.4409C8.44741 10.7456 8.86073 10.9168 9.29171 10.9168C9.72268 10.9168 10.136 10.7456 10.4408 10.4409C10.7455 10.1361 10.9167 9.72281 10.9167 9.29183C10.9167 8.86085 10.7455 8.44753 10.4408 8.14278C10.136 7.83803 9.72268 7.66683 9.29171 7.66683ZM14.7084 13.0835C14.2774 13.0835 13.8641 13.2547 13.5593 13.5594C13.2546 13.8642 13.0834 14.2775 13.0834 14.7085C13.0834 15.1395 13.2546 15.5528 13.5593 15.8575C13.8641 16.1623 14.2774 16.3335 14.7084 16.3335C15.1394 16.3335 15.5527 16.1623 15.8574 15.8575C16.1622 15.5528 16.3334 15.1395 16.3334 14.7085C16.3334 14.2775 16.1622 13.8642 15.8574 13.5594C15.5527 13.2547 15.1394 13.0835 14.7084 13.0835Z" fill="#DE7264"/>
</svg>
