<svg width="14" height="14" viewBox="0 0 14 14" fill="none" xmlns="http://www.w3.org/2000/svg">
<path fillRule="evenodd" clipRule="evenodd" d="M6.29295 13.707L0.792948 8.208C0.60566 8.02017 0.500488 7.76574 0.500488 7.5005C0.500488 7.23525 0.60566 6.98082 0.792948 6.793C0.885736 6.70005 0.995939 6.62631 1.11725 6.576C1.23857 6.52569 1.36861 6.49979 1.49995 6.49979C1.63128 6.49979 1.76133 6.52569 1.88264 6.576C2.00396 6.62631 2.11416 6.70005 2.20695 6.793L5.99995 10.586V0.999996C5.99995 0.734779 6.1053 0.480425 6.29284 0.292889C6.48038 0.105352 6.73473 -3.8147e-06 6.99995 -3.8147e-06C7.26516 -3.8147e-06 7.51952 0.105352 7.70705 0.292889C7.89459 0.480425 7.99995 0.734779 7.99995 0.999996V10.586L11.7929 6.793C11.8859 6.70015 11.9961 6.62652 12.1175 6.57629C12.2389 6.52607 12.369 6.50025 12.5003 6.50029C12.6316 6.50034 12.7617 6.52626 12.883 6.57656C13.0044 6.62687 13.1146 6.70059 13.2074 6.7935C13.3003 6.88641 13.3739 6.99669 13.4241 7.11806C13.4744 7.23943 13.5002 7.3695 13.5001 7.50085C13.5001 7.6322 13.4742 7.76225 13.4239 7.88358C13.3736 8.00492 13.2999 8.11515 13.2069 8.208L7.70695 13.707C7.61434 13.8002 7.50417 13.874 7.38281 13.9243C7.26145 13.9746 7.13132 14.0004 6.99995 14C6.86858 14.0004 6.73845 13.9746 6.61709 13.9243C6.49573 13.874 6.38555 13.8002 6.29295 13.707Z" fill="#DE350B"/>
</svg>
