<svg width="20" height="14" viewBox="0 0 20 14" fill="none" xmlns="http://www.w3.org/2000/svg">
<path d="M2 0H18C19.105 0 20 1.045 20 2.333V11.667C20 12.955 19.105 14 18 14H2C0.895 14 0 12.955 0 11.667V2.333C0 1.045 0.895 0 2 0ZM5.465 9.887H6.743L4.786 4.251H3.399L1.442 9.887H2.625L3.059 8.544H5.039L5.465 9.887ZM4.02 5.423H4.09L4.79 7.633H3.313L4.02 5.423ZM10.235 9.887C11.438 9.887 12.185 9.262 12.185 8.274C12.185 7.548 11.641 6.985 10.895 6.93V6.86C11.18 6.81284 11.439 6.66602 11.6258 6.44569C11.8126 6.22537 11.9151 5.94586 11.915 5.657C11.915 4.786 11.262 4.251 10.168 4.251H7.704V9.887H10.234H10.235ZM8.883 5.153H9.868C10.43 5.153 10.754 5.423 10.754 5.872C10.754 6.325 10.407 6.587 9.77 6.587H8.883V5.153ZM8.883 8.985V7.384H9.907C10.602 7.384 10.981 7.657 10.981 8.173C10.981 8.7 10.614 8.985 9.934 8.985H8.884H8.883ZM15.645 10.032C17.005 10.032 17.997 9.192 18.095 7.973H16.945C16.833 8.594 16.325 8.993 15.649 8.993C14.759 8.993 14.208 8.255 14.208 7.067C14.208 5.88 14.758 5.145 15.645 5.145C16.317 5.145 16.829 5.571 16.942 6.219H18.09C18.004 4.993 16.981 4.106 15.645 4.106C14.008 4.106 13 5.236 13 7.067C13 8.903 14.012 10.032 15.645 10.032Z" fill="black"/>
</svg>
