<svg width="18" height="18" viewBox="0 0 18 18" fill="none" xmlns="http://www.w3.org/2000/svg">
<path fillRule="evenodd" clipRule="evenodd" d="M16.005 2H16V3C16 4.105 15.112 5 14 5C12.895 5 12 4.112 12 3V2H6V3C6 4.105 5.112 5 4 5C2.895 5 2 4.112 2 3V2H1.995C0.892 2 0 2.893 0 3.994V16.006C0.00026513 16.5349 0.210569 17.0421 0.584675 17.416C0.958782 17.7899 1.46607 18 1.995 18H16.005C16.2669 18.0001 16.5263 17.9487 16.7684 17.8485C17.0104 17.7484 17.2304 17.6015 17.4156 17.4163C17.6009 17.2312 17.7478 17.0113 17.8481 16.7693C17.9484 16.5273 18 16.2679 18 16.006V3.994C18 2.895 17.107 2 16.005 2ZM6 10.001H4V8H6V10.001ZM6 14.001H4V12H6V14.001ZM10 10.001H8V8H10V10.001ZM10 14.001H8V12H10V14.001ZM14 10.001H12V8H14V10.001ZM14 14.001H12V12H14V14.001Z" fill="black"/>
<path fillRule="evenodd" clipRule="evenodd" d="M13 3V2H15V3C15 3.26522 14.8946 3.51957 14.7071 3.70711C14.5196 3.89464 14.2652 4 14 4C13.7348 4 13.4804 3.89464 13.2929 3.70711C13.1054 3.51957 13 3.26522 13 3ZM13 1C13 0.734784 13.1054 0.48043 13.2929 0.292893C13.4804 0.105357 13.7348 0 14 0C14.2652 0 14.5196 0.105357 14.7071 0.292893C14.8946 0.48043 15 0.734784 15 1V2H13V1ZM3 1C3 0.734784 3.10536 0.48043 3.29289 0.292893C3.48043 0.105357 3.73478 0 4 0C4.26522 0 4.51957 0.105357 4.70711 0.292893C4.89464 0.48043 5 0.734784 5 1V2H3V1ZM3 3V2H5V3C5 3.26522 4.89464 3.51957 4.70711 3.70711C4.51957 3.89464 4.26522 4 4 4C3.73478 4 3.48043 3.89464 3.29289 3.70711C3.10536 3.51957 3 3.26522 3 3Z" fill="black"/>
</svg>
