<svg width="24" height="24" viewBox="0 0 24 24" fill="none" xmlns="http://www.w3.org/2000/svg">
<circle cx="12" cy="12" r="12" fill="#F8E1DD"/>
<path d="M10.8816 6.59105L10.7031 6.47913C10.3539 6.26497 9.9179 6.14056 9.54314 6.25733C9.14033 6.38276 8.8191 6.69302 8.65084 7.15906L8.41119 7.03567C7.99818 6.82304 7.78199 6.81973 7.60277 6.90029C7.45974 6.96428 7.3106 7.11827 7.14157 7.34313L9.24231 8.96737C9.57118 9.07445 10.053 9.0719 10.5349 8.94697C11.0193 8.82205 11.5011 8.57731 11.8529 8.24843L12.6458 6.28792C11.9473 5.73597 11.3099 6.05567 10.8816 6.59105ZM12.2353 8.54162C11.8019 8.98012 11.1569 9.27585 10.6547 9.40842C10.4788 9.45431 10.3029 9.48745 10.1321 9.5053C10.0377 9.66082 9.9587 9.81888 9.89751 9.97694C10.0199 10.599 10.2493 11.1089 10.5935 11.527L10.2264 11.8329C10.0148 11.578 9.82612 11.3026 9.68336 10.9967C9.66041 11.5882 9.79298 12.2 10.0097 12.8374L9.55843 12.9904C9.16072 11.8278 9.0256 10.6372 9.58393 9.5155C9.39527 9.5002 9.21681 9.46451 9.0511 9.40587L9.04345 9.40332C8.93382 9.50785 8.8293 9.61747 8.72987 9.7322C7.92501 10.6653 7.48167 11.9069 7.71367 12.8731C7.83782 13.3906 8.06039 13.8801 8.3806 14.2982C8.84969 14.288 9.29329 14.2982 9.6961 14.4512C9.88731 14.4308 10.0836 14.4181 10.2876 14.4181C11.0142 14.4181 11.6719 14.5532 12.1691 14.7877C12.3628 14.8795 12.5387 14.9891 12.6789 15.114C12.6789 14.9789 12.6993 14.8336 12.7401 14.7265C12.5132 14.5124 12.3705 14.2523 12.3705 13.9566C12.3705 13.5461 12.6432 13.2071 13.0384 12.9623C13.0384 12.8451 13.0614 12.7329 13.1021 12.6258C12.8447 12.404 12.6789 12.1287 12.6789 11.8074C12.6789 11.606 12.7452 11.4225 12.8574 11.2568C12.7452 11.0936 12.6789 10.91 12.6789 10.7086C12.6789 10.6092 12.6942 10.5174 12.7223 10.4282C12.475 10.2089 12.3195 9.9387 12.3195 9.62767C12.3195 9.31919 12.4724 9.0515 12.7172 8.8348C12.5668 8.71753 12.4061 8.6181 12.2353 8.54162ZM15.0754 8.60025C14.4125 8.60025 13.8134 8.74047 13.403 8.94697C12.99 9.15348 12.7962 9.40842 12.7962 9.62767C12.7962 9.84947 12.99 10.1044 13.403 10.3109C13.8134 10.5174 14.4125 10.6576 15.0754 10.6576C15.3635 10.6576 15.6363 10.6296 15.8887 10.5837V10.1503C16.243 10.0968 16.5362 9.99989 16.7249 9.87497V10.3237C17.0436 10.2319 17.3495 9.89281 17.3571 9.62767C17.3571 9.40842 17.1634 9.15348 16.7504 8.94697C16.3374 8.74047 15.7408 8.60025 15.0754 8.60025ZM17.5356 10.3262C17.4515 10.4154 17.352 10.4996 17.2399 10.5761L17.245 11.3154C17.5662 11.1242 17.7166 10.9024 17.7166 10.7086C17.7166 10.5863 17.658 10.4537 17.5356 10.3262ZM13.1557 10.7188C13.1633 10.9381 13.3571 11.1854 13.7624 11.3893C14.1755 11.5984 14.772 11.7361 15.4374 11.7361C15.853 11.7361 16.243 11.68 16.577 11.5882L16.5949 10.8947C16.1564 11.0477 15.6363 11.1318 15.0754 11.1318C14.3488 11.1318 13.6885 10.9865 13.1888 10.7367C13.1761 10.7316 13.1659 10.7239 13.1557 10.7188ZM13.2067 11.606C13.171 11.6749 13.1557 11.7437 13.1557 11.8074C13.1557 12.0292 13.3494 12.2842 13.7624 12.4907C14.1755 12.6972 14.772 12.8349 15.4374 12.8349C15.7739 12.8349 16.0926 12.8017 16.3807 12.738V12.1261C16.085 12.1822 15.7688 12.2102 15.4374 12.2102C14.7083 12.2102 14.048 12.0675 13.5483 11.8151C13.4234 11.7539 13.3086 11.6825 13.2067 11.606ZM17.6656 11.606C17.5101 11.7157 17.375 11.7972 17.2169 11.8661V12.4346C17.556 12.2383 17.7166 12.0088 17.7166 11.8074C17.7166 11.7437 17.7013 11.6749 17.6656 11.606ZM17.8568 12.5442C17.8058 12.5952 17.7498 12.6436 17.6886 12.6921V13.5181C17.9512 13.3396 18.0786 13.1433 18.0786 12.9649C18.0786 12.8298 18.0047 12.6844 17.8568 12.5442ZM13.5202 12.9011C13.5177 12.9241 13.5151 12.9445 13.5151 12.9649C13.5151 13.1867 13.7089 13.4391 14.1219 13.6456C14.5349 13.8546 15.134 13.9923 15.7969 13.9923C16.1768 13.9923 16.5388 13.9464 16.8524 13.8699V13.1076C16.4368 13.2402 15.955 13.3116 15.4374 13.3116C14.7083 13.3116 14.048 13.1663 13.5483 12.9164C13.5381 12.9113 13.5304 12.9062 13.5202 12.9011ZM13.1735 13.4467C12.9517 13.6124 12.8472 13.7934 12.8472 13.9566C12.8472 14.1784 13.041 14.4308 13.454 14.6399C13.867 14.8464 14.4635 14.984 15.1289 14.984C15.3711 14.984 15.6057 14.9662 15.8249 14.933V14.469H15.7969C15.0678 14.469 14.4074 14.3237 13.9078 14.0713C13.5891 13.9133 13.3239 13.7017 13.1735 13.4467ZM17.3163 14.2268C17.1149 14.2982 16.8957 14.3569 16.6611 14.3951V14.7036C16.7096 14.6832 16.758 14.6628 16.8039 14.6399C17.0538 14.5124 17.222 14.3696 17.3163 14.2268ZM17.5509 14.6908C17.454 14.7877 17.3418 14.8744 17.2169 14.9534V15.6826C17.556 15.4888 17.7166 15.2594 17.7166 15.058C17.7166 14.9407 17.6631 14.8132 17.5509 14.6908ZM8.66104 14.7622C8.40099 14.7648 8.12056 14.7979 7.82992 14.8668C7.2484 15.0019 6.74845 15.2492 6.42213 15.522C6.0958 15.7922 5.96833 16.0675 6.00657 16.2638C6.04481 16.4601 6.24622 16.6412 6.63883 16.7457C7.03016 16.8477 7.57753 16.8528 8.1588 16.7176C8.39335 16.6615 8.6126 16.5902 8.814 16.506V15.9783C9.18622 15.8126 9.46411 15.6137 9.58903 15.42V16.042C9.89751 15.7769 10.0173 15.5118 9.98164 15.318C9.94595 15.1217 9.74199 14.9407 9.34938 14.8387C9.15308 14.7877 8.91853 14.7597 8.66104 14.7622ZM10.308 14.8948C10.3768 14.9942 10.4252 15.1064 10.4507 15.2313C10.4788 15.3843 10.466 15.5322 10.4201 15.6775C10.6725 15.7438 10.902 15.833 11.1008 15.9452C11.213 16.0063 11.3175 16.0803 11.4093 16.1568C11.6388 16.1032 11.8325 16.0267 11.9702 15.935V16.4601C12.3807 16.2664 12.5693 16.0293 12.5693 15.8406C12.5693 15.6494 12.3807 15.4123 11.9676 15.2186C11.5572 15.0274 10.9657 14.8973 10.308 14.8948ZM13.1582 15.0223C13.1557 15.0325 13.1557 15.0452 13.1557 15.058C13.1557 15.2798 13.3494 15.5322 13.7624 15.7412C14.1755 15.9477 14.772 16.0854 15.4374 16.0854C15.7739 16.0854 16.0926 16.0497 16.3807 15.9885V15.3027C16.0034 15.4047 15.5776 15.4608 15.1289 15.4608C14.3998 15.4608 13.7395 15.3154 13.2398 15.0656C13.2118 15.0503 13.1837 15.035 13.1582 15.0223ZM13.2296 15.9732C13.1786 16.0573 13.1557 16.1389 13.1557 16.2179C13.1557 16.4397 13.3494 16.6921 13.7624 16.9012C14.1755 17.1077 14.772 17.2454 15.4374 17.2454C15.7739 17.2454 16.0926 17.2097 16.3807 17.1485V16.4754C16.085 16.5315 15.7688 16.5621 15.4374 16.5621C14.7083 16.5621 14.048 16.4168 13.5483 16.1644C13.4336 16.1083 13.3265 16.0446 13.2296 15.9732ZM17.6427 15.9732C17.4948 16.0726 17.3648 16.1517 17.2169 16.2154V16.8426C17.556 16.6488 17.7166 16.4194 17.7166 16.2179C17.7166 16.1389 17.6937 16.0573 17.6427 15.9732ZM10.183 16.1109C10.0938 16.223 9.98929 16.3301 9.87201 16.427C9.4743 16.761 8.91343 17.0312 8.26587 17.1816C8.0349 17.2352 7.80545 17.2683 7.58518 17.2862C7.66676 17.4213 7.81029 17.5539 8.02036 17.6711C8.36785 17.8674 8.87774 18 9.44371 18C9.7012 18 9.94595 17.972 10.1703 17.9235V17.3932C10.5221 17.3397 10.8179 17.2428 11.0065 17.1179V17.587C11.2615 17.4085 11.3838 17.2071 11.3838 17.0159C11.3838 16.7941 11.2181 16.557 10.8688 16.3607C10.6802 16.2562 10.4456 16.1695 10.183 16.1109Z" fill="#DE7264"/>
</svg>
